<svg id="logomark_black" data-name="logomark black" xmlns="http://www.w3.org/2000/svg" viewBox="0 0 32 32"><defs><style>.cls-1{fill-rule:evenodd;}</style></defs><path class="cls-1" d="M5.79,23.35A1.08,1.08,0,0,1,6.58,23L31,23a.54.54,0,0,1,.39.9l-5.2,5.73a1.08,1.08,0,0,1-.79.35L1,30a.54.54,0,0,1-.39-.9Zm25.62-4.77a.54.54,0,0,1-.39.9l-24.44,0a1.08,1.08,0,0,1-.79-.35L.59,13.42a.54.54,0,0,1,.39-.9l24.44,0a1.08,1.08,0,0,1,.79.35ZM5.79,2.35A1.08,1.08,0,0,1,6.58,2L31,2a.54.54,0,0,1,.39.9l-5.2,5.73a1.08,1.08,0,0,1-.79.35L1,9a.54.54,0,0,1-.39-.9Z"/></svg>