<svg id="logomark_mono" data-name="logomark mono" xmlns="http://www.w3.org/2000/svg" viewBox="0 0 24 24"><defs><style>.cls-1{fill:#9945ff;fill-rule:evenodd;}</style></defs><path class="cls-1" d="M4.34,17.51a.83.83,0,0,1,.6-.26l18.32,0a.4.4,0,0,1,.3.67l-3.9,4.3a.83.83,0,0,1-.6.26l-18.32,0a.4.4,0,0,1-.3-.67Zm19.22-3.57a.4.4,0,0,1-.3.67H4.94a.79.79,0,0,1-.6-.26l-3.9-4.3a.4.4,0,0,1,.3-.67H19.06a.79.79,0,0,1,.6.26ZM4.34,1.76a.83.83,0,0,1,.6-.26l18.32,0a.4.4,0,0,1,.3.67l-3.9,4.3a.83.83,0,0,1-.6.26L.74,6.73a.4.4,0,0,1-.3-.67Z"/></svg>