<svg id="logomark_mono" data-name="logomark mono" xmlns="http://www.w3.org/2000/svg" viewBox="0 0 36 36"><defs><style>.cls-1{fill:#9945ff;fill-rule:evenodd;}</style></defs><path class="cls-1" d="M6.33,26.4a1.24,1.24,0,0,1,.91-.4l27.92,0a.62.62,0,0,1,.46,1L29.67,33.6a1.24,1.24,0,0,1-.91.4L.84,34a.62.62,0,0,1-.46-1ZM35.62,21a.62.62,0,0,1-.46,1L7.24,22a1.24,1.24,0,0,1-.91-.4L.38,15.05a.62.62,0,0,1,.46-1l27.92,0a1.24,1.24,0,0,1,.91.4ZM6.33,2.4A1.24,1.24,0,0,1,7.24,2L35.16,2a.62.62,0,0,1,.46,1L29.67,9.6a1.24,1.24,0,0,1-.91.4L.84,10A.62.62,0,0,1,.38,9Z"/></svg>