<svg id="logo-vertical" xmlns="http://www.w3.org/2000/svg" xmlns:xlink="http://www.w3.org/1999/xlink" viewBox="0 0 478 180"><defs><style>.cls-1{fill-rule:evenodd;fill:url(#linear-gradient);}</style><linearGradient id="linear-gradient" x1="191.38" y1="73.57" x2="266.52" y2="-1.57" gradientUnits="userSpaceOnUse"><stop offset="0" stop-color="#9945ff"/><stop offset="0.14" stop-color="#8a53f4"/><stop offset="0.42" stop-color="#6377d6"/><stop offset="0.79" stop-color="#24b0a7"/><stop offset="0.99" stop-color="#00d18c"/><stop offset="1" stop-color="#00d18c"/></linearGradient></defs><path d="M68.91,122.4V108H14.3A14.3,14.3,0,0,0,0,122.3v14.6a14.3,14.3,0,0,0,14.3,14.3H57.6v14.4H1V180H57.7A14.3,14.3,0,0,0,72,165.7V151.1a14.3,14.3,0,0,0-14.3-14.3H14.4V122.4Z"/><path d="M84.25,122.3v43.4A14.29,14.29,0,0,0,98.54,180H142a14.3,14.3,0,0,0,14.3-14.3V122.3A14.3,14.3,0,0,0,142,108H98.54A14.29,14.29,0,0,0,84.25,122.3Zm57.6,43.3H98.65V122.4h43.2Z"/><path d="M237.42,122.3V180h14.4V156.34H294V180h14.4V122.3A14.29,14.29,0,0,0,294.1,108H251.72A14.3,14.3,0,0,0,237.42,122.3ZM294,141.94H251.82V122.4H294Z"/><path d="M406,122.3V180h14.4V156.34H462.6V180H477V122.3A14.3,14.3,0,0,0,462.7,108H420.33A14.3,14.3,0,0,0,406,122.3Zm56.57,19.64H420.43V122.4H462.6Z"/><path d="M378.81,108v57.6h-5.76L352.41,114a9.53,9.53,0,0,0-8.85-6H330.74a9.53,9.53,0,0,0-9.53,9.53V180h14.4V122.4h5.76L362,174a9.51,9.51,0,0,0,8.84,6h12.82a9.53,9.53,0,0,0,9.53-9.53V108Z"/><path d="M183.46,165.6V108h-14.4v57.7a14.3,14.3,0,0,0,14.3,14.3h43.3V165.6Z"/><path class="cls-1" d="M202.7,54.9a2.76,2.76,0,0,1,2-.9l62.83,0a1.38,1.38,0,0,1,1,2.31L255.21,71.1a2.76,2.76,0,0,1-2,.9l-62.84,0a1.38,1.38,0,0,1-1-2.31Zm65.89-12.26a1.38,1.38,0,0,1-1,2.31l-62.83,0a2.76,2.76,0,0,1-2-.9L189.32,29.36a1.38,1.38,0,0,1,1-2.31L253.17,27a2.76,2.76,0,0,1,2,.9ZM202.7.9a2.76,2.76,0,0,1,2-.9l62.83.05a1.38,1.38,0,0,1,1,2.31L255.21,17.1a2.76,2.76,0,0,1-2,.9L190.33,18a1.38,1.38,0,0,1-1-2.31Z"/></svg>