<svg id="logomark_white" data-name="logomark white" xmlns="http://www.w3.org/2000/svg" viewBox="0 0 48 48"><defs><style>.cls-1{fill:#fff;fill-rule:evenodd;}</style></defs><path class="cls-1" d="M8.68,35a1.61,1.61,0,0,1,1.19-.53l36.66,0a.81.81,0,0,1,.59,1.35l-7.8,8.59a1.61,1.61,0,0,1-1.19.53L1.47,45a.81.81,0,0,1-.59-1.35Zm38.44-7.16a.81.81,0,0,1-.59,1.35l-36.66,0a1.61,1.61,0,0,1-1.19-.53L.88,20.13a.81.81,0,0,1,.59-1.35l36.66,0a1.61,1.61,0,0,1,1.19.53ZM8.68,3.53A1.61,1.61,0,0,1,9.87,3L46.53,3a.81.81,0,0,1,.59,1.35L39.32,13a1.61,1.61,0,0,1-1.19.53l-36.66,0a.81.81,0,0,1-.59-1.35Z"/></svg>