<svg id="logomark_white" data-name="logomark white" xmlns="http://www.w3.org/2000/svg" viewBox="0 0 96 96"><defs><style>.cls-1{fill:#fff;fill-rule:evenodd;}</style></defs><path class="cls-1" d="M17.37,70.05a3.2,3.2,0,0,1,2.37-1l73.32.06a1.61,1.61,0,0,1,1.18,2.7L78.63,89a3.21,3.21,0,0,1-2.38,1L2.94,89.94a1.61,1.61,0,0,1-1.18-2.7ZM94.24,55.74a1.61,1.61,0,0,1-1.18,2.7l-73.31.06a3.21,3.21,0,0,1-2.38-1L1.76,40.26a1.61,1.61,0,0,1,1.18-2.7l73.32-.06a3.2,3.2,0,0,1,2.37,1ZM17.37,7.05a3.2,3.2,0,0,1,2.37-1l73.32.06a1.61,1.61,0,0,1,1.18,2.7L78.63,26A3.21,3.21,0,0,1,76.25,27L2.94,26.94a1.61,1.61,0,0,1-1.18-2.7Z"/></svg>