<svg id="logomark_white" data-name="logomark white" xmlns="http://www.w3.org/2000/svg" viewBox="0 0 54 54"><defs><style>.cls-1{fill:#fff;fill-rule:evenodd;}</style></defs><path class="cls-1" d="M9.5,39.6a1.83,1.83,0,0,1,1.35-.6l41.9,0a.93.93,0,0,1,.68,1.55L44.5,50.4a1.83,1.83,0,0,1-1.35.6L1.25,51a.93.93,0,0,1-.68-1.55Zm43.93-8.18A.93.93,0,0,1,52.75,33l-41.9,0a1.83,1.83,0,0,1-1.35-.6L.57,22.58A.93.93,0,0,1,1.25,21l41.9,0a1.83,1.83,0,0,1,1.35.6ZM9.5,3.6A1.83,1.83,0,0,1,10.85,3l41.9,0a.93.93,0,0,1,.68,1.55L44.5,14.4a1.83,1.83,0,0,1-1.35.6L1.25,15a.93.93,0,0,1-.68-1.55Z"/></svg>