<svg id="logo" xmlns="http://www.w3.org/2000/svg" xmlns:xlink="http://www.w3.org/1999/xlink" viewBox="0 0 72 72"><defs><style>.cls-1{fill-rule:evenodd;fill:url(#linear-gradient);}</style><linearGradient id="linear-gradient" x1="2.6" y1="69.4" x2="69.4" y2="2.6" gradientUnits="userSpaceOnUse"><stop offset="0" stop-color="#9945ff"/><stop offset="0.2" stop-color="#7962e7"/><stop offset="1" stop-color="#00d18c"/></linearGradient></defs><path class="cls-1" d="M12.66,52.8a2.45,2.45,0,0,1,1.81-.8l55.86,0a1.22,1.22,0,0,1,.9,2.05L59.34,67.2a2.45,2.45,0,0,1-1.81.8L1.67,68a1.22,1.22,0,0,1-.9-2ZM71.23,41.9a1.22,1.22,0,0,1-.9,2.05L14.47,44a2.45,2.45,0,0,1-1.81-.8L.77,30.1a1.22,1.22,0,0,1,.9-2.05L57.53,28a2.45,2.45,0,0,1,1.81.8ZM12.66,4.8A2.45,2.45,0,0,1,14.47,4l55.86,0a1.22,1.22,0,0,1,.9,2.05L59.34,19.2a2.45,2.45,0,0,1-1.81.8L1.67,20a1.22,1.22,0,0,1-.9-2.05Z"/></svg>