<svg id="logo" xmlns="http://www.w3.org/2000/svg" xmlns:xlink="http://www.w3.org/1999/xlink" viewBox="0 0 24 24"><defs><style>.cls-1{fill-rule:evenodd;fill:url(#linear-gradient);}</style><linearGradient id="linear-gradient" x1="1.04" y1="22.96" x2="22.96" y2="1.04" gradientUnits="userSpaceOnUse"><stop offset="0" stop-color="#9945ff"/><stop offset="0.2" stop-color="#7962e7"/><stop offset="1" stop-color="#00d18c"/></linearGradient></defs><path class="cls-1" d="M4.34,17.51a.83.83,0,0,1,.6-.26l18.32,0a.4.4,0,0,1,.3.67l-3.9,4.3a.83.83,0,0,1-.6.26l-18.32,0a.4.4,0,0,1-.3-.67Zm19.22-3.57a.4.4,0,0,1-.3.67H4.94a.79.79,0,0,1-.6-.26l-3.9-4.3a.4.4,0,0,1,.3-.67H19.06a.79.79,0,0,1,.6.26ZM4.34,1.76a.83.83,0,0,1,.6-.26l18.32,0a.4.4,0,0,1,.3.67l-3.9,4.3a.83.83,0,0,1-.6.26L.74,6.73a.4.4,0,0,1-.3-.67Z"/></svg>