<svg id="logo" xmlns="http://www.w3.org/2000/svg" xmlns:xlink="http://www.w3.org/1999/xlink" viewBox="0 0 48 48"><defs><style>.cls-1{fill-rule:evenodd;fill:url(#linear-gradient);}</style><linearGradient id="linear-gradient" x1="2.08" y1="45.92" x2="45.92" y2="2.08" gradientUnits="userSpaceOnUse"><stop offset="0" stop-color="#9945ff"/><stop offset="0.14" stop-color="#8a53f4"/><stop offset="0.42" stop-color="#6377d6"/><stop offset="0.79" stop-color="#24b0a7"/><stop offset="0.99" stop-color="#00d18c"/><stop offset="1" stop-color="#00d18c"/></linearGradient></defs><path class="cls-1" d="M8.68,35a1.61,1.61,0,0,1,1.19-.53l36.66,0a.81.81,0,0,1,.59,1.35l-7.8,8.59a1.61,1.61,0,0,1-1.19.53L1.47,45a.81.81,0,0,1-.59-1.35Zm38.44-7.16a.81.81,0,0,1-.59,1.35l-36.66,0a1.61,1.61,0,0,1-1.19-.53L.88,20.13a.81.81,0,0,1,.59-1.35l36.66,0a1.61,1.61,0,0,1,1.19.53ZM8.68,3.53A1.61,1.61,0,0,1,9.87,3L46.53,3a.81.81,0,0,1,.59,1.35L39.32,13a1.61,1.61,0,0,1-1.19.53l-36.66,0a.81.81,0,0,1-.59-1.35Z"/></svg>