<svg id="logo" xmlns="http://www.w3.org/2000/svg" xmlns:xlink="http://www.w3.org/1999/xlink" viewBox="0 0 64 64"><defs><style>.cls-1{fill-rule:evenodd;fill:url(#linear-gradient);}</style><linearGradient id="linear-gradient" x1="2.78" y1="61.22" x2="61.22" y2="2.78" gradientUnits="userSpaceOnUse"><stop offset="0" stop-color="#9945ff"/><stop offset="0.2" stop-color="#7962e7"/><stop offset="1" stop-color="#00d18c"/></linearGradient></defs><path class="cls-1" d="M11.58,46.7a2.13,2.13,0,0,1,1.58-.7L62,46a1.07,1.07,0,0,1,.79,1.8L52.42,59.3a2.13,2.13,0,0,1-1.58.7L2,60a1.07,1.07,0,0,1-.79-1.8Zm51.25-9.54A1.07,1.07,0,0,1,62,39L13.16,39a2.13,2.13,0,0,1-1.58-.7L1.17,26.84A1.07,1.07,0,0,1,2,25l48.88,0a2.13,2.13,0,0,1,1.58.7ZM11.58,4.7A2.13,2.13,0,0,1,13.16,4L62,4a1.07,1.07,0,0,1,.79,1.8L52.42,17.3a2.13,2.13,0,0,1-1.58.7L2,18a1.07,1.07,0,0,1-.79-1.8Z"/></svg>