<svg id="wordmark-black" xmlns="http://www.w3.org/2000/svg" viewBox="0 0 500 76"><defs><style>.cls-1{fill:#fff;}</style></defs><g id="Layer_2" data-name="Layer 2"><g id="Layer_1-2" data-name="Layer 1-2"><path class="cls-1" d="M71.69,15.57V.46H14.38a15,15,0,0,0-15,15V30.79a15,15,0,0,0,15,15H59.81v15.1H.46V76H59.92a15,15,0,0,0,15-15V45.68a15,15,0,0,0-15-15H14.49V15.57Z"/><path class="cls-1" d="M87.3,15.46V61a15,15,0,0,0,15,15h45.54a15,15,0,0,0,15-15V15.46a15,15,0,0,0-15-15H102.3A15,15,0,0,0,87.3,15.46Zm60.43,45.43H102.38V15.57H147.7Z"/><path class="cls-1" d="M248,15.46V76h15.11V51.18h44.26V76h15.1V15.46a15,15,0,0,0-15-15H263A15,15,0,0,0,248,15.46Zm59.37,20.61H263.12V15.57h44.26Z"/><path class="cls-1" d="M424.92,15.46V76H440V51.18h44.25V76h15.11V15.46a15,15,0,0,0-15-15H439.92A15,15,0,0,0,424.92,15.46Zm59.35,20.61H440V15.57h44.25Z"/><path class="cls-1" d="M396.38.46V60.89h-6L368.66,6.75A10,10,0,0,0,359.38.46H345.93a10,10,0,0,0-10,10V76H351V15.57h6.05l21.66,54.15A10,10,0,0,0,388,76h13.45a10,10,0,0,0,10-10V.46Z"/><path class="cls-1" d="M191.38,60.89V.46H176.29V61a15,15,0,0,0,15,15h45.43V60.89Z"/></g></g></svg>