<svg id="logo" xmlns="http://www.w3.org/2000/svg" xmlns:xlink="http://www.w3.org/1999/xlink" viewBox="0 0 18 18"><defs><style>.cls-1{fill-rule:evenodd;fill:url(#linear-gradient);}</style><linearGradient id="linear-gradient" x1="0.65" y1="17.35" x2="17.35" y2="0.65" gradientUnits="userSpaceOnUse"><stop offset="0" stop-color="#9945ff"/><stop offset="0.2" stop-color="#7962e7"/><stop offset="1" stop-color="#00d18c"/></linearGradient></defs><path class="cls-1" d="M3.17,13.2a.59.59,0,0,1,.45-.2h14a.31.31,0,0,1,.23.52l-3,3.27a.59.59,0,0,1-.45.2H.42a.31.31,0,0,1-.23-.52Zm14.64-2.73a.31.31,0,0,1-.23.52h-14a.59.59,0,0,1-.45-.2l-3-3.27A.31.31,0,0,1,.42,7h14a.59.59,0,0,1,.45.2ZM3.17,1.2A.59.59,0,0,1,3.62,1h14a.31.31,0,0,1,.23.52l-3,3.27a.59.59,0,0,1-.45.2H.42a.31.31,0,0,1-.23-.52Z"/></svg>