<svg id="logo" xmlns="http://www.w3.org/2000/svg" xmlns:xlink="http://www.w3.org/1999/xlink" viewBox="0 0 14 14"><defs><style>.cls-1{fill-rule:evenodd;fill:url(#linear-gradient);}</style><linearGradient id="linear-gradient" x1="0.74" y1="13.26" x2="13.26" y2="0.74" gradientUnits="userSpaceOnUse"><stop offset="0" stop-color="#9945ff"/><stop offset="0.2" stop-color="#7962e7"/><stop offset="1" stop-color="#00d18c"/></linearGradient></defs><path class="cls-1" d="M2.62,10.15A.45.45,0,0,1,3,10H13.44a.23.23,0,0,1,.17.38l-2.23,2.46A.45.45,0,0,1,11,13H.56a.23.23,0,0,1-.17-.38Zm11-2a.23.23,0,0,1-.17.38H3a.45.45,0,0,1-.34-.15L.39,5.89a.23.23,0,0,1,.17-.38H11a.45.45,0,0,1,.34.15Zm-11-7A.45.45,0,0,1,3,1H13.44a.23.23,0,0,1,.17.38L11.38,3.85A.45.45,0,0,1,11,4H.56a.23.23,0,0,1-.17-.38Z"/></svg>